<?xml version="1.0" encoding="UTF-8" standalone="no"?>
<svg
   xmlns:dc="http://purl.org/dc/elements/1.1/"
   xmlns:cc="http://creativecommons.org/ns#"
   xmlns:rdf="http://www.w3.org/1999/02/22-rdf-syntax-ns#"
   xmlns:svg="http://www.w3.org/2000/svg"
   xmlns="http://www.w3.org/2000/svg"
   xmlns:sodipodi="http://sodipodi.sourceforge.net/DTD/sodipodi-0.dtd"
   xmlns:inkscape="http://www.inkscape.org/namespaces/inkscape"
   height="612"
   id="svg4004"
   inkscape:version="0.46"
   sodipodi:docbase="/datas/Projs/Cliparts Stocker/tmp/AIGA"
   sodipodi:docname="aiga_barber_shop_beauty_salon1.svg"
   sodipodi:version="0.32"
   width="612"
   inkscape:output_extension="org.inkscape.output.svg.inkscape"
   version="1.0">
  <sodipodi:namedview
     bordercolor="#666666"
     borderopacity="1.0"
     id="base"
     inkscape:current-layer="svg4004"
     inkscape:cx="-32.174949"
     inkscape:cy="417.84947"
     inkscape:pageopacity="0.0"
     inkscape:pageshadow="2"
     inkscape:window-height="667"
     inkscape:window-width="859"
     inkscape:window-x="5"
     inkscape:window-y="48"
     inkscape:zoom="0.43415836"
     pagecolor="#ffffff"
     showgrid="false" />
  <defs
     id="defs4006">
    <inkscape:perspective
       sodipodi:type="inkscape:persp3d"
       inkscape:vp_x="0 : 306.58499 : 1"
       inkscape:vp_y="0 : 1000 : 0"
       inkscape:vp_z="612.164 : 306.58499 : 1"
       inkscape:persp3d-origin="306.082 : 204.38999 : 1"
       id="perspective26" />
    <marker
       id="ArrowEnd"
       markerHeight="3"
       markerUnits="strokeWidth"
       markerWidth="4"
       orient="auto"
       refX="0"
       refY="5"
       viewBox="0 0 10 10">
      <path
         d="M 0,0 L 10,5 L 0,10 L 0,0 z"
         id="path4009" />
    </marker>
    <marker
       id="ArrowStart"
       markerHeight="3"
       markerUnits="strokeWidth"
       markerWidth="4"
       orient="auto"
       refX="10"
       refY="5"
       viewBox="0 0 10 10">
      <path
         d="M 10,0 L 0,5 L 10,10 L 10,0 z"
         id="path4012" />
    </marker>
  </defs>
  <g
     id="g4014">
    <path
       d="M 82.4318,17.9243 C 41.0968,17.9243 17.8608,39.2943 17.8608,82.9594 L 17.8608,533.081 C 17.8608,573.924 38.7518,595.309 80.0528,595.309 L 532.077,595.309 C 573.38,595.309 594.303,574.989 594.303,533.081 L 594.303,82.9594 C 594.303,40.3593 573.38,17.9243 530.78,17.9243 C 530.78,17.9243 82.2888,17.7813 82.4318,17.9243 z"
       id="path4016"
       style="fill:#000000;stroke:#ffffff;stroke-width:3.40799999" />
    <g
       id="g4018">
      <g
         id="g4020">
        <path
           d="M 392.292,131.567 L 320.273,131.567 C 307.242,131.567 307.721,150.832 320.273,150.832 L 392.292,150.832 L 392.292,160.464 L 320.322,160.464 C 307.3,160.464 307.779,179.729 320.322,179.729 L 392.292,179.729 L 392.292,189.361 L 392.292,189.842 L 320.322,189.842 C 307.3,189.842 307.779,209.107 320.322,209.107 L 392.292,209.107 L 392.292,218.739 L 320.322,218.739 C 307.572,218.739 307.779,238.004 320.322,238.004 L 392.292,238.004 L 392.292,247.636 L 320.322,247.636 C 307.572,247.636 307.529,266.901 320.322,266.901 L 392.292,266.901 L 392.292,276.533 L 320.322,276.533 C 307.572,276.533 307.529,295.798 320.322,295.798 L 392.292,295.798 L 392.292,305.43 L 320.322,305.43 C 307.572,305.43 307.529,324.693 320.322,324.693 L 392.292,324.693 L 392.292,334.325 L 320.301,334.323 C 307.572,334.323 307.779,353.59 320.322,353.59 L 392.292,353.59 L 392.292,540.465 C 392.292,568.969 435.821,568.469 435.821,540.465 L 435.821,102.965 C 435.821,89.9653 425.072,73.5005 407.322,73.5005 L 320.253,73.4563 C 307.23,73.4563 307.71,92.722 320.253,92.722 L 392.292,92.7663 L 392.292,102.399 L 320.273,102.399 C 307.249,102.399 307.728,121.663 320.273,121.663 L 392.292,121.663 L 392.292,131.567 z"
           id="path4022"
           style="fill:#ffffff;stroke:none" />
        <g
           id="g4024">
          <path
             d="M 308.822,508.965 C 306.426,524.78 311.791,553.145 323.072,563.465 C 334.822,574.215 348.743,560.516 342.929,549.372 C 337.178,538.349 329.842,532.324 336.072,505.965 L 308.822,508.965 z"
             id="path4026"
             style="fill:#ffffff;stroke:none" />
          <path
             d="M 254.44,73.3154 C 251.205,73.3154 247.755,74.6096 247.107,80.2165 L 223.64,289.962 L 223.64,417.099 C 179.322,393.965 146.037,429.965 146.037,462.628 C 146.037,491.862 167.526,515.824 198.198,515.824 C 228.87,515.824 249.85,488.986 249.85,462.628 L 249.85,334.814 L 259.702,334.814 L 259.702,462.628 C 259.702,493.048 284.239,515.465 310.572,515.465 C 343.572,515.465 364.607,492.199 364.607,462.965 C 364.607,429.715 330.322,393.965 285.88,417.099 L 285.88,289.962 L 261.772,80.2165 C 261.126,74.6096 257.676,73.3154 254.44,73.3154 z"
             id="path4028"
             style="fill:#ffffff;stroke:none" />
        </g>
      </g>
      <g
         id="g4030">
        <g
           id="g4032">
          <path
             d="M 197.802,489.057 C 183.39,489.057 171.707,477.376 171.707,462.965 C 171.707,448.553 183.39,436.87 197.802,436.87 C 212.211,436.87 223.894,448.553 223.894,462.965 C 223.894,477.376 212.211,489.057 197.802,489.057 z"
             id="path4034"
             style="fill:#000000;stroke:none" />
          <path
             id="path4036"
             style="fill:#000000;stroke:none" />
        </g>
        <g
           id="g4038">
          <path
             d="M 312.822,489.057 C 327.231,489.057 338.915,477.376 338.915,462.965 C 338.915,448.553 327.231,436.87 312.822,436.87 C 298.41,436.87 286.727,448.553 286.727,462.965 C 286.727,477.376 298.41,489.057 312.822,489.057 z"
             id="path4040"
             style="fill:#000000;stroke:none" />
          <path
             id="path4042"
             style="fill:#000000;stroke:none" />
        </g>
      </g>
    </g>
  </g>
</svg>
